<svg width="119" height="22" viewBox="0 0 119 22" fill="none" xmlns="http://www.w3.org/2000/svg">
<path d="M2.09488 19.8512C1.0647 18.337 0.572125 16.5257 0.694876 14.7031V7.2636C0.564924 5.42752 1.05005 3.60029 2.07487 2.06588C3.00154 0.88218 4.58487 0.293636 6.82487 0.300249C9.06487 0.306862 10.5815 0.825972 11.3749 1.85758C12.3422 3.13597 12.8142 4.7166 12.7049 6.31134V8.05714H8.56487V6.16256C8.55929 5.66405 8.51584 5.16668 8.43487 4.67466C8.38482 4.31847 8.21994 3.9879 7.96487 3.73233C7.80741 3.59838 7.62461 3.49694 7.42714 3.43392C7.22968 3.3709 7.02153 3.34757 6.81487 3.36531C6.51808 3.32138 6.21485 3.36922 5.94645 3.50234C5.67805 3.63546 5.45751 3.84738 5.31487 4.10926C5.05194 4.80587 4.93621 5.54866 4.97487 6.29151V15.7347C4.92925 16.4824 5.0629 17.2303 5.36487 17.9169C5.50915 18.1646 5.72325 18.3651 5.98085 18.4938C6.23846 18.6224 6.52834 18.6736 6.81487 18.641C7.09643 18.6805 7.38337 18.6308 7.63477 18.499C7.88617 18.3672 8.08918 18.16 8.21487 17.907C8.45676 17.2091 8.56198 16.4718 8.52487 15.7347V13.7508H12.6649V15.4669C12.7867 17.0851 12.3533 18.6967 11.4349 20.0397C10.5549 21.1308 9.03487 21.6664 6.87488 21.6664C4.71488 21.6664 3.02488 21.0713 2.09488 19.8512Z" fill="#111111"/>
<path d="M18.3456 0.587906H23.0856L27.0856 21.4184H23.1456L22.4356 16.8159H19.1156L18.3156 21.3887H14.3156L18.3456 0.587906ZM21.9956 14.1972L20.7356 5.8253L19.4856 14.1972H21.9956Z" fill="#111111"/>
<path d="M30.1561 3.7224H26.9161V0.587906H37.6361V3.7224H34.4361V21.3887H30.1461L30.1561 3.7224Z" fill="#111111"/>
<path d="M46.0471 0.587906H54.1771V2.75031H48.9771V9.62439H53.1971V11.6777H48.9771V19.3056H54.2271V21.3887H46.0471V0.587906Z" fill="#444444"/>
<path d="M56.5876 0.587906H58.5876L64.5876 14.4055V0.587906H67.0276V21.4184H65.1577L59.1577 7.214V21.3887H56.6777L56.5876 0.587906Z" fill="#444444"/>
<path d="M70.2583 0.587906H78.3783V2.75031H73.1783V9.62439H77.4383V11.6777H73.2183V19.3056H78.4383V21.3887H70.2583V0.587906Z" fill="#444444"/>
<path d="M80.7888 0.587911H85.0088C86.6719 0.455168 88.328 0.915992 89.6788 1.88734C90.6788 2.75032 91.1688 4.15886 91.1688 6.11296C91.1688 8.75811 90.3055 10.375 88.5788 10.9635L91.5788 21.3887H88.7388L85.9888 11.6281H83.7188V21.3887H80.7888V0.587911ZM84.7888 9.51528C85.7522 9.60774 86.7155 9.33877 87.4888 8.76141C87.8031 8.3925 88.0379 7.96372 88.179 7.50143C88.32 7.03915 88.3642 6.55314 88.3088 6.07328C88.3289 5.40032 88.2308 4.72902 88.0188 4.08942C87.9328 3.85359 87.8 3.63727 87.6283 3.45325C87.4565 3.26924 87.2493 3.12129 87.0188 3.01814C86.3696 2.75395 85.6696 2.63539 84.9688 2.67096H83.6788V9.55496L84.7888 9.51528Z" fill="#444444"/>
<path d="M95.1095 19.8512C94.1536 18.2508 93.7107 16.4001 93.8395 14.5444V7.60085C93.805 6.26091 93.9735 4.92343 94.3395 3.63313C94.6283 2.66308 95.2421 1.81979 96.0795 1.24258C97.0905 0.638244 98.2607 0.34804 99.4395 0.409361C100.202 0.337435 100.971 0.431546 101.693 0.685118C102.415 0.938689 103.072 1.3456 103.619 1.87742C104.579 3.21061 105.032 4.83734 104.899 6.47005V7.24376H102.149V6.599C102.168 5.82784 102.108 5.05679 101.969 4.29773C101.878 3.81126 101.607 3.3761 101.209 3.07765C100.69 2.77377 100.091 2.63204 99.4895 2.67096C98.8363 2.61553 98.187 2.81479 97.6795 3.22644C97.2647 3.61678 96.9937 4.13359 96.9095 4.6945C96.7828 5.51158 96.7259 6.33782 96.7395 7.1644V14.8915C96.6601 16.0657 96.8623 17.2419 97.3295 18.3236C97.6008 18.6563 97.9452 18.923 98.3364 19.1034C98.7276 19.2838 99.1552 19.3731 99.5865 19.3645C100.018 19.3559 100.441 19.2496 100.825 19.0537C101.209 18.8578 101.542 18.5776 101.799 18.2343C102.281 17.0903 102.49 15.8512 102.409 14.6138V13.1457H99.7495V11.0924H105.049V21.3887H103.239L102.949 18.9981C102.72 19.7923 102.227 20.4863 101.55 20.9671C100.873 21.448 100.051 21.6874 99.2195 21.6466C98.4374 21.715 97.6506 21.5863 96.9321 21.2724C96.2135 20.9585 95.5866 20.4697 95.1095 19.8512Z" fill="#444444"/>
<path d="M111.13 14.0484L106.6 0.587906H109.32L112.53 10.6262L115.69 0.587906H118.44L113.94 14.0484V21.3887H111.14L111.13 14.0484Z" fill="#444444"/>
</svg>
