<svg width="61" height="50" viewBox="0 0 61 50" fill="none" xmlns="http://www.w3.org/2000/svg">
<path d="M51.5819 19.0714C50.0969 15.4824 47.7053 12.3486 44.6455 9.98236C41.5858 7.61612 37.9646 6.10004 34.143 5.58524C30.3214 5.07043 26.4327 5.57487 22.8646 7.04828C19.2965 8.52169 16.1734 10.9126 13.8068 13.9828C11.4401 17.053 9.91247 20.6952 9.37606 24.5464C8.83965 28.3976 9.31322 32.3234 10.7496 35.9326C12.1859 39.5417 14.5349 42.7081 17.5624 45.1162C20.5899 47.5243 24.1903 49.09 28.0046 49.6573C27.5049 47.8413 26.9967 45.8341 26.5487 43.7052C27.8519 44.5579 29.2235 45.299 30.6491 45.921C30.6491 45.921 30.7525 47.7978 30.8903 49.8919C32.4308 49.9187 33.9697 49.7818 35.4818 49.4835C35.4427 49.2652 35.4427 49.0415 35.4818 48.8231C35.7316 47.1983 36.4207 44.27 36.5585 42.3845C37.552 41.4471 38.3948 40.3596 39.0567 39.1608L39.005 39.5431C38.5312 43.2447 37.5406 47.1983 36.9376 48.2931C36.7424 48.6555 36.5021 48.9913 36.2226 49.2924C39.3408 48.5545 42.2626 47.1414 44.7854 45.1511C47.3083 43.1607 49.3718 40.6407 50.8329 37.7658C52.294 34.8909 53.1178 31.7298 53.2472 28.5018C53.3765 25.2737 52.8083 22.0559 51.5819 19.0714ZM50.3156 22.3646C49.9365 22.7383 49.1526 22.9902 49.0234 21.8606C48.8942 20.7311 48.8598 19.9403 48.8598 19.9403C48.8598 19.9403 47.1972 16.96 46.577 16.9252C45.9567 16.8904 41.5548 19.9403 40.3919 21.2698C39.384 22.3907 39.1859 22.3125 39.1859 24.2849C39.1859 25.7708 39.3754 31.384 39.272 35.6764L32.2514 37.562C30.0447 38.2008 27.8006 38.6999 25.5323 39.0565L24.6708 33.9907H24.5502L22.3364 22.5471C22.3364 22.5471 19.0543 21.2959 17.8483 20.957C17.282 20.7071 16.6567 20.6258 16.0462 20.7228C15.4356 20.8198 14.8653 21.091 14.4026 21.5044C13.9305 21.9213 13.5531 22.4359 13.2959 23.0132C13.0388 23.5905 12.9079 24.2169 12.9123 24.8497C13.0944 25.2536 13.233 25.676 13.3258 26.1097C13.3689 26.5267 12.2921 26.4833 11.603 26.4833C10.9138 26.4833 10.8104 25.232 11.3531 23.7636C11.7765 22.6344 12.3013 21.5467 12.9209 20.5138C13.387 19.5912 13.9881 18.7447 14.7041 18.0027C14.7041 18.0027 14.8247 17.7072 15.7809 17.7941C16.7371 17.881 22.0521 18.1678 22.0521 18.1678L22.0952 16.1953C27.8722 15.3907 33.6987 15.0016 39.5305 15.031C39.5305 15.561 39.5305 16.091 39.5305 16.6211C41.7394 15.6043 44.1179 15.0148 46.5425 14.8832C46.6722 14.8799 46.8008 14.9092 46.9165 14.9683C47.0323 15.0275 47.1317 15.1147 47.2058 15.2221C47.4987 15.5958 49.2819 17.8289 49.4886 18.1504C50.0677 18.9851 50.5942 19.8558 51.065 20.7571C50.9036 21.3278 50.6504 21.868 50.3156 22.3559V22.3646Z" fill="#FDC305"/>
<path d="M48.6363 17.0469C49.0411 17.5682 49.3943 18.0287 49.4977 18.1678C50.0768 19.0025 50.6033 19.8732 51.0741 20.7745C50.9102 21.3265 50.6601 21.8486 50.3333 22.3212C49.9543 22.6948 49.1704 22.9468 49.0411 21.8172C48.9119 20.6876 48.8602 19.9403 48.8602 19.9403C48.8602 19.9403 47.1977 16.96 46.5775 16.9252C45.9572 16.8904 41.5553 19.9403 40.3924 21.2698C39.3845 22.3907 39.1864 22.3125 39.1864 24.2849C39.1864 25.5883 39.3328 30.0632 39.2984 34.0429C40.8576 34.2166 43.149 34.6511 43.8381 35.6764C43.8381 35.6764 43.5883 29.4376 50.5659 32.7047C50.5659 32.7047 50.8071 24.198 60.4378 26.379C57.1639 22.5018 53.1505 19.3282 48.6363 17.0469Z" fill="#F06351"/>
<path d="M39.5655 15.031C39.6005 10.2161 39.1968 5.40813 38.3595 0.66777C38.3595 0.66777 38.2303 -0.461822 37.61 0.45923C37.0982 1.56034 36.7499 2.73145 36.5763 3.9349C32.8938 3.69656 29.1975 3.79545 25.5328 4.23033C24.8264 1.84081 23.6204 0.754661 23.0433 1.0414C22.4661 1.32815 22.3972 3.89145 22.3972 3.89145L22.1129 16.1953C27.8957 15.3899 33.7279 15.0008 39.5655 15.031Z" fill="#F06351"/>
<path d="M39.0651 39.1608C39.1771 38.231 39.2374 36.9972 39.2718 35.633L32.2515 37.5185C30.0459 38.172 27.8019 38.6857 25.5327 39.0565L26.4889 43.4011C26.4889 43.4967 26.4889 43.5923 26.5492 43.6878C27.8522 44.5405 29.2237 45.2817 30.6494 45.9036C32.7328 44.899 34.7171 43.6974 36.5757 42.315V42.3671C37.5646 41.4344 38.4044 40.3528 39.0651 39.1608Z" fill="#E55645"/>
<path d="M27.5657 12.3113C27.5226 12.2244 28.4271 12.9021 28.7803 13.1107C29.1334 13.3192 29.3057 13.4756 29.3057 13.6233C29.3057 13.771 29.0817 13.9187 28.7716 13.9187C28.4615 13.9187 27.9792 13.8145 27.9103 13.6928C27.8413 13.5712 28.4271 13.6928 28.72 13.6928H28.9698C28.4394 13.3015 27.9667 12.8363 27.5657 12.3113Z" fill="black"/>
<path d="M34.0264 12.4068C34.0264 12.4068 33.165 13.5191 33.0875 13.5712C33.01 13.6233 32.9411 13.8666 33.2512 13.8232C33.6072 13.7696 33.9585 13.6882 34.3021 13.5799C34.3968 13.5277 34.3624 13.4061 34.1987 13.4235C34.035 13.4409 33.613 13.4669 33.3373 13.5191L34.0695 12.4155C34.0695 12.4155 34.0953 12.3113 34.0264 12.4068Z" fill="black"/>
<path d="M31.3215 17.7159C31.7208 17.5385 32.0509 17.233 32.2605 16.847C32.5016 16.2735 32.2605 16.0563 31.8814 15.9781C31.36 15.8821 30.8219 15.9876 30.374 16.2735C30.0381 16.595 30.0811 16.9078 30.374 17.1424C30.665 17.3726 30.9833 17.5653 31.3215 17.7159Z" fill="black"/>
<path d="M31.0113 18.8108C30.9124 19.0078 30.7781 19.1846 30.6151 19.3321C30.3697 19.5312 30.0682 19.6468 29.7537 19.6623C29.2794 19.7093 28.8052 19.5726 28.4272 19.28C28.2535 19.1775 28.099 19.0452 27.9706 18.889C27.8845 18.7943 27.7785 18.7201 27.6605 18.6717C27.6605 18.6717 28.3066 22.243 29.8743 22.8165C31.442 23.3899 31.7349 22.1561 31.7779 21.8259C31.8304 20.837 31.5841 19.8553 31.0716 19.0106C31.0716 18.7499 31.0544 18.9237 31.0113 18.8108Z" fill="#F06351"/>
<path d="M29.5469 19.8013C29.1438 19.7429 28.7566 19.6026 28.4087 19.3891C28.0608 19.1755 27.7594 18.8931 27.5226 18.5588C27.5015 18.5349 27.4897 18.5039 27.4897 18.4719C27.4897 18.4398 27.5015 18.4089 27.5226 18.385C27.5339 18.3734 27.5473 18.3642 27.5621 18.358C27.5769 18.3517 27.5927 18.3485 27.6088 18.3485C27.6248 18.3485 27.6407 18.3517 27.6555 18.358C27.6703 18.3642 27.6837 18.3734 27.6949 18.385C27.9081 18.6866 28.1785 18.9426 28.4905 19.138C28.8025 19.3334 29.1499 19.4644 29.5124 19.5233C29.7993 19.5015 30.0769 19.4114 30.3225 19.2604C30.5681 19.1093 30.7746 18.9016 30.9251 18.6544L31.0457 18.4893L31.1319 18.6804C31.1319 18.6804 31.4592 19.3408 31.9932 19.3756C32.5273 19.4103 32.9063 19.0106 33.3973 18.2546C33.4156 18.227 33.444 18.2078 33.4763 18.2013C33.5086 18.1948 33.5422 18.2015 33.5696 18.2199C33.597 18.2383 33.616 18.267 33.6225 18.2996C33.629 18.3322 33.6223 18.366 33.604 18.3937C33.0298 19.2452 32.4871 19.6536 31.976 19.6188C31.7785 19.5924 31.5893 19.5218 31.4224 19.412C31.2554 19.3023 31.115 19.1562 31.0113 18.9845C30.8427 19.2219 30.6238 19.4184 30.3705 19.5597C30.1172 19.701 29.8358 19.7836 29.5469 19.8013Z" fill="black"/>
<path d="M31.2352 31.4969C33.0192 31.4969 34.4654 30.0381 34.4654 28.2385C34.4654 26.4389 33.0192 24.9801 31.2352 24.9801C29.4512 24.9801 28.005 26.4389 28.005 28.2385C28.005 30.0381 29.4512 31.4969 31.2352 31.4969Z" fill="#FDC305"/>
<path d="M35.5163 25.5883L32.8201 26.7266L33.8107 21.8346L27.3503 30.3152L30.0465 29.1769L29.0559 34.0776L35.5163 25.5883ZM29.1506 28.9163L32.734 24.2154L32.0363 27.6911L33.7591 26.9786L30.1498 31.6881L30.8476 28.2124L29.1506 28.9163Z" fill="#111111"/>
<path d="M27.9447 27.6389C28.4776 27.6389 28.9095 27.2032 28.9095 26.6658C28.9095 26.1283 28.4776 25.6926 27.9447 25.6926C27.4119 25.6926 26.98 26.1283 26.98 26.6658C26.98 27.2032 27.4119 27.6389 27.9447 27.6389Z" fill="#111111"/>
<path d="M33.5612 31.1667C33.9371 31.1667 34.2417 30.8594 34.2417 30.4803C34.2417 30.1012 33.9371 29.7939 33.5612 29.7939C33.1854 29.7939 32.8807 30.1012 32.8807 30.4803C32.8807 30.8594 33.1854 31.1667 33.5612 31.1667Z" fill="#111111"/>
<path d="M34.3883 29.2812C34.5548 29.2812 34.6898 29.145 34.6898 28.9771C34.6898 28.8091 34.5548 28.673 34.3883 28.673C34.2218 28.673 34.0868 28.8091 34.0868 28.9771C34.0868 29.145 34.2218 29.2812 34.3883 29.2812Z" fill="#111111"/>
<path d="M39.5224 16.6037C37.9674 18.0177 36.5029 19.5297 35.1377 21.1308C33.7778 22.7203 32.2433 24.1487 30.5635 25.3884C30.374 24.9279 29.1594 24.0677 29.1594 24.0677C29.1594 24.0677 26.4545 22.1995 24.6799 20.7311C23.7207 19.9251 22.8169 19.0542 21.9751 18.1243L20.2522 18.0287C22.7392 21.6931 26.3826 24.4004 30.5893 25.7099C31.3302 25.5883 33.4148 24.0851 34.974 22.8599C36.8187 21.2775 38.5461 19.5612 40.1426 17.7246C40.5717 17.2102 40.9044 16.6213 41.1246 15.9868C40.1426 16.317 39.5224 16.6037 39.5224 16.6037Z" fill="#F06351"/>
<path d="M22.3368 22.5471C22.3368 22.5471 19.0548 21.2959 17.8488 20.957C17.2825 20.7071 16.6572 20.6258 16.0466 20.7228C15.4361 20.8198 14.8658 21.091 14.4031 21.5044C13.931 21.9213 13.5536 22.4359 13.2964 23.0132C13.0393 23.5905 12.9084 24.2169 12.9128 24.8497C13.0949 25.2536 13.2335 25.676 13.3263 26.1097C13.3694 26.5267 12.2926 26.4833 11.6034 26.4833C10.9143 26.4833 10.8109 25.2321 11.3536 23.7636C11.777 22.6344 12.3018 21.5467 12.9214 20.5138C8.22664 22.9816 0 28.6817 0 28.6817C2.35316 28.5385 4.71429 28.6083 7.0551 28.8902C11.5776 29.3507 11.3622 32.948 11.3622 32.948C12.9529 32.5057 14.574 32.1833 16.2121 31.9835C18.0383 31.8619 18.1675 33.8256 18.1675 33.8256L18.6241 37.1797C19.3173 36.4231 20.0819 35.7363 20.9069 35.129C21.9703 34.2704 23.3243 33.865 24.6799 33.9994L22.3368 22.5471Z" fill="#F06351"/>
</svg>
